<?xml version="1.0" standalone="no"?>
<!DOCTYPE svg PUBLIC "-//W3C//DTD SVG 20010904//EN"
 "http://www.w3.org/TR/2001/REC-SVG-20010904/DTD/svg10.dtd">
<svg version="1.0" xmlns="http://www.w3.org/2000/svg"
 width="100.000000pt" height="100.000000pt" viewBox="0 0 100.000000 100.000000"
 preserveAspectRatio="xMidYMid meet">
<metadata>
Created by potrace 1.14, written by Peter Selinger 2001-2017
</metadata>
<g transform="translate(0.000000,100.000000) scale(0.100000,-0.100000)"
fill="#000000" stroke="none">
<path d="M66 688 c1 -338 4 -361 56 -460 77 -146 227 -230 396 -224 133 5 240
58 322 158 92 115 94 124 98 506 l3 332 -438 0 -438 0 1 -312z m400 -186 l0
-424 -35 5 c-98 13 -211 103 -259 205 -27 57 -27 57 -30 335 -2 154 -1 284 1
291 4 9 49 12 164 12 l159 0 0 -424z m264 419 c0 -10 -12 -23 -103 -111 l-87
-85 0 100 0 100 95 1 c52 0 95 -2 95 -5z m139 -58 l2 -58 -166 -165 -165 -165
0 70 0 71 157 156 c86 86 160 155 163 153 4 -2 8 -30 9 -62z m1 -238 l0 -66
-165 -166 -165 -165 0 70 0 70 162 161 c88 88 163 161 165 161 1 0 3 -29 3
-65z m-5 -227 c-15 -146 -147 -292 -283 -314 -39 -6 -42 -5 -42 17 0 17 44 68
162 186 90 90 164 163 165 163 2 0 1 -24 -2 -52z"/>
</g>
</svg>
